<svg width="257" height="256" viewBox="0 0 257 256" fill="none" xmlns="http://www.w3.org/2000/svg">
<rect width="256" height="256" transform="translate(0.939941)" fill="#3858E9"/>
<path d="M73.7932 110.819C73.5139 107.747 72.2707 105.358 70.0638 103.654C67.8848 101.922 64.77 101.056 60.7193 101.056C58.0375 101.056 55.8027 101.405 54.0148 102.104C52.2269 102.802 50.886 103.766 49.9921 104.995C49.0981 106.196 48.6372 107.579 48.6093 109.143C48.5534 110.428 48.8048 111.56 49.3635 112.538C49.9502 113.515 50.7882 114.381 51.8777 115.136C52.9952 115.862 54.3361 116.504 55.9005 117.063C57.4649 117.622 59.2248 118.111 61.1803 118.53L68.5553 120.206C72.8015 121.128 76.5449 122.357 79.7854 123.893C83.0539 125.43 85.7916 127.26 87.9985 129.383C90.2333 131.506 91.9234 133.95 93.0688 136.716C94.2141 139.481 94.8008 142.582 94.8287 146.018C94.8008 151.438 93.4319 156.089 90.7222 159.972C88.0124 163.855 84.1154 166.83 79.0311 168.898C73.9748 170.965 67.8709 171.998 60.7193 171.998C53.5399 171.998 47.2823 170.923 41.9466 168.772C36.6109 166.621 32.4625 163.352 29.5013 158.966C26.5401 154.581 25.0176 149.035 24.9338 142.331H44.7961C44.9637 145.096 45.704 147.401 47.0169 149.245C48.3299 151.089 50.1318 152.485 52.4225 153.435C54.7411 154.385 57.423 154.86 60.4679 154.86C63.2615 154.86 65.636 154.483 67.5915 153.729C69.5749 152.974 71.0974 151.927 72.159 150.586C73.2205 149.245 73.7653 147.708 73.7932 145.976C73.7653 144.356 73.2624 142.973 72.2847 141.828C71.3069 140.655 69.7984 139.649 67.7591 138.811C65.7478 137.945 63.1777 137.149 60.0489 136.422L51.0816 134.327C43.6507 132.623 37.7982 129.872 33.524 126.072C29.2499 122.245 27.1268 117.077 27.1547 110.568C27.1268 105.26 28.5515 100.609 31.4289 96.6142C34.3062 92.6194 38.2871 89.5046 43.3713 87.2698C48.4556 85.0349 54.2523 83.9175 60.7613 83.9175C67.4099 83.9175 73.1786 85.0489 78.0674 87.3117C82.984 89.5465 86.7972 92.6893 89.507 96.7399C92.2168 100.791 93.5996 105.484 93.6554 110.819H73.7932Z" fill="white"/>
<path d="M172.389 116.183H151.438C151.158 114.032 150.586 112.091 149.72 110.359C148.854 108.627 147.708 107.146 146.284 105.917C144.859 104.688 143.169 103.752 141.213 103.109C139.286 102.439 137.149 102.104 134.802 102.104C130.64 102.104 127.05 103.123 124.033 105.163C121.044 107.202 118.739 110.149 117.119 114.004C115.526 117.859 114.73 122.524 114.73 128C114.73 133.699 115.54 138.476 117.161 142.331C118.809 146.158 121.114 149.049 124.075 151.005C127.064 152.932 130.598 153.896 134.676 153.896C136.967 153.896 139.048 153.603 140.92 153.016C142.82 152.43 144.482 151.578 145.906 150.46C147.359 149.315 148.546 147.932 149.468 146.312C150.418 144.663 151.075 142.806 151.438 140.739L172.389 140.864C172.026 144.663 170.923 148.407 169.079 152.094C167.263 155.782 164.763 159.148 161.578 162.193C158.394 165.21 154.511 167.613 149.929 169.4C145.376 171.188 140.152 172.082 134.257 172.082C126.491 172.082 119.535 170.378 113.389 166.97C107.272 163.534 102.439 158.533 98.8908 151.969C95.343 145.404 93.5691 137.414 93.5691 128C93.5691 118.558 95.3709 110.554 98.9746 103.989C102.578 97.4243 107.453 92.4378 113.599 89.0297C119.745 85.6216 126.631 83.9175 134.257 83.9175C139.453 83.9175 144.258 84.6438 148.672 86.0965C153.086 87.5212 156.969 89.6163 160.321 92.382C163.674 95.1197 166.397 98.4859 168.492 102.481C170.588 106.475 171.887 111.043 172.389 116.183Z" fill="white"/>
<path d="M174.365 170.909V85.0908H232.946V101.936H195.107V119.535H229.217V136.423H195.107V170.909H174.365Z" fill="white"/>
</svg>
