<svg xmlns="http://www.w3.org/2000/svg" width="107" height="30" viewBox="0 0 107 30" fill="none"><path d="M18.8864 11.1818H30V27.6682C30 28.95 28.9636 30 27.6682 30H2.33182C1.03636 30 0 28.9636 0 27.6682V2.33182C0 1.03636 1.03636 0 2.33182 0H18.8864V11.1818Z" fill="#2579FF"></path><path d="M29.9999 10.9773V11.1818H18.8862V0H19.0226L29.9999 10.9773Z" fill="#66D5CD"></path><path d="M20.9318 17.1137H4.56814C4.00905 17.1137 3.54541 16.6501 3.54541 16.091C3.54541 15.5319 4.00905 15.0682 4.56814 15.0682H20.9318C21.4909 15.0682 21.9545 15.5319 21.9545 16.091C21.9545 16.6501 21.4909 17.1137 20.9318 17.1137Z" fill="#0747AC"></path><path d="M14.7954 21.2727H4.56814C4.00905 21.2727 3.54541 20.8091 3.54541 20.25C3.54541 19.6909 4.00905 19.2273 4.56814 19.2273H14.7954C15.3545 19.2273 15.8181 19.6909 15.8181 20.25C15.8181 20.8091 15.3545 21.2727 14.7954 21.2727Z" fill="#0747AC"></path><path d="M20.9318 25.4319H4.56814C4.00905 25.4319 3.54541 24.9683 3.54541 24.4092C3.54541 23.8501 4.00905 23.3865 4.56814 23.3865H20.9318C21.4909 23.3865 21.9545 23.8501 21.9545 24.4092C21.9545 24.9683 21.4909 25.4319 20.9318 25.4319Z" fill="#0747AC"></path><path d="M30 12.8181L18.9546 11.1818H30V12.8181Z" fill="#2367D3"></path><path d="M38.96 27V6.83997H45.386C45.554 6.83997 45.8853 6.84463 46.38 6.85397C46.884 6.8633 47.3693 6.89597 47.836 6.95197C49.432 7.1573 50.7806 7.72663 51.882 8.65997C52.9926 9.58397 53.8326 10.7646 54.402 12.202C54.9713 13.6393 55.256 15.212 55.256 16.92C55.256 18.628 54.9713 20.2006 54.402 21.638C53.8326 23.0753 52.9926 24.2606 51.882 25.194C50.7806 26.118 49.432 26.6826 47.836 26.888C47.3786 26.944 46.898 26.9766 46.394 26.986C45.89 26.9953 45.554 27 45.386 27H38.96ZM42.39 23.822H45.386C45.666 23.822 46.0206 23.8126 46.45 23.794C46.8886 23.7753 47.276 23.7333 47.612 23.668C48.564 23.4906 49.3386 23.066 49.936 22.394C50.5333 21.722 50.972 20.9053 51.252 19.944C51.5413 18.9826 51.686 17.9746 51.686 16.92C51.686 15.828 51.5413 14.8013 51.252 13.84C50.9626 12.8786 50.5146 12.0713 49.908 11.418C49.3106 10.7646 48.5453 10.3493 47.612 10.172C47.276 10.0973 46.8886 10.0553 46.45 10.046C46.0206 10.0273 45.666 10.018 45.386 10.018H42.39V23.822Z" fill="#12174E"></path><path d="M64.6274 27.42C63.2368 27.42 62.0234 27.07 60.9874 26.37C59.9514 25.67 59.1488 24.718 58.5794 23.514C58.0101 22.31 57.7254 20.952 57.7254 19.44C57.7254 17.9093 58.0101 16.5466 58.5794 15.352C59.1581 14.148 59.9748 13.2006 61.0294 12.51C62.0841 11.81 63.3254 11.46 64.7534 11.46C66.1908 11.46 67.3948 11.81 68.3654 12.51C69.3454 13.2006 70.0874 14.148 70.5914 15.352C71.0954 16.556 71.3474 17.9186 71.3474 19.44C71.3474 20.9426 71.0954 22.3006 70.5914 23.514C70.0874 24.718 69.3361 25.67 68.3374 26.37C67.3388 27.07 66.1021 27.42 64.6274 27.42ZM65.1454 24.396C66.0508 24.396 66.7788 24.1906 67.3294 23.78C67.8894 23.36 68.2954 22.7766 68.5474 22.03C68.8088 21.2833 68.9394 20.42 68.9394 19.44C68.9394 18.4506 68.8088 17.5873 68.5474 16.85C68.2954 16.1033 67.8988 15.5246 67.3574 15.114C66.8161 14.694 66.1161 14.484 65.2574 14.484C64.3521 14.484 63.6054 14.708 63.0174 15.156C62.4294 15.5946 61.9954 16.192 61.7154 16.948C61.4354 17.6946 61.2954 18.5253 61.2954 19.44C61.2954 20.364 61.4308 21.204 61.7014 21.96C61.9814 22.7066 62.4061 23.2993 62.9754 23.738C63.5448 24.1766 64.2681 24.396 65.1454 24.396ZM68.9394 27V16.388H68.5194V6.83997H71.9214V27H68.9394Z" fill="#12174E"></path><path d="M82.5247 27.42C81.0127 27.42 79.692 27.0793 78.5627 26.398C77.4333 25.7166 76.556 24.7786 75.9307 23.584C75.3147 22.38 75.0067 20.9986 75.0067 19.44C75.0067 17.8533 75.324 16.4626 75.9587 15.268C76.5933 14.0733 77.4753 13.14 78.6047 12.468C79.734 11.796 81.0407 11.46 82.5247 11.46C84.046 11.46 85.3713 11.8006 86.5007 12.482C87.63 13.1633 88.5073 14.106 89.1327 15.31C89.758 16.5046 90.0707 17.8813 90.0707 19.44C90.0707 21.008 89.7533 22.394 89.1187 23.598C88.4933 24.7926 87.616 25.7306 86.4867 26.412C85.3573 27.084 84.0367 27.42 82.5247 27.42ZM82.5247 24.256C83.8687 24.256 84.8673 23.808 85.5207 22.912C86.174 22.016 86.5007 20.8586 86.5007 19.44C86.5007 17.9746 86.1693 16.808 85.5067 15.94C84.844 15.0626 83.85 14.624 82.5247 14.624C81.6193 14.624 80.8727 14.8293 80.2847 15.24C79.706 15.6413 79.2767 16.206 78.9967 16.934C78.7167 17.6526 78.5767 18.488 78.5767 19.44C78.5767 20.9053 78.908 22.0766 79.5707 22.954C80.2427 23.822 81.2273 24.256 82.5247 24.256Z" fill="#12174E"></path><path d="M99.7213 27.42C98.1626 27.42 96.8326 27.0746 95.7313 26.384C94.6299 25.684 93.7853 24.732 93.1973 23.528C92.6186 22.324 92.3246 20.9613 92.3153 19.44C92.3246 17.8906 92.6279 16.5186 93.2253 15.324C93.8319 14.12 94.6906 13.1773 95.8013 12.496C96.9119 11.8053 98.2326 11.46 99.7633 11.46C101.481 11.46 102.932 11.894 104.117 12.762C105.312 13.6206 106.091 14.7966 106.455 16.29L103.095 17.2C102.834 16.388 102.4 15.758 101.793 15.31C101.187 14.8526 100.496 14.624 99.7213 14.624C98.8439 14.624 98.1206 14.834 97.5513 15.254C96.9819 15.6646 96.5619 16.234 96.2913 16.962C96.0206 17.69 95.8853 18.516 95.8853 19.44C95.8853 20.8773 96.2073 22.0393 96.8513 22.926C97.4953 23.8126 98.4519 24.256 99.7213 24.256C100.617 24.256 101.322 24.0506 101.835 23.64C102.358 23.2293 102.75 22.6366 103.011 21.862L106.455 22.632C105.989 24.172 105.172 25.3573 104.005 26.188C102.839 27.0093 101.411 27.42 99.7213 27.42Z" fill="#12174E"></path></svg>