<svg width="365" height="37" viewBox="0 0 365 37" fill="none" xmlns="http://www.w3.org/2000/svg">
<path d="M0.872 4.272V1.92H16.088C18.808 1.92 21.272 2.304 23.48 3.072C25.72 3.84 27.656 4.96 29.288 6.432C30.92 7.904 32.168 9.696 33.032 11.808C33.928 13.888 34.376 16.24 34.376 18.864C34.376 21.488 33.928 23.856 33.032 25.968C32.168 28.048 30.92 29.84 29.288 31.344C27.656 32.848 25.72 34 23.48 34.8C21.272 35.6 18.808 36 16.088 36H0.872V33.648H1.352C2.408 33.648 3.272 33.536 3.944 33.312C4.648 33.088 5 32.624 5 31.92V6C5 5.36 4.648 4.912 3.944 4.656C3.272 4.4 2.408 4.272 1.352 4.272H0.872ZM15.992 4.8H11.048V33.12H15.992C17.816 33.12 19.464 32.816 20.936 32.208C22.408 31.568 23.656 30.64 24.68 29.424C25.736 28.176 26.536 26.672 27.08 24.912C27.656 23.152 27.944 21.136 27.944 18.864C27.944 16.592 27.656 14.592 27.08 12.864C26.536 11.104 25.736 9.632 24.68 8.448C23.656 7.232 22.408 6.32 20.936 5.712C19.464 5.104 17.816 4.8 15.992 4.8ZM64.7173 23.76C64.7173 26.224 64.1733 28.432 63.0853 30.384C61.9973 32.304 60.4773 33.808 58.5253 34.896C56.5733 35.952 54.3013 36.48 51.7093 36.48C49.1493 36.48 46.8773 35.952 44.8933 34.896C42.9413 33.808 41.4213 32.304 40.3333 30.384C39.2453 28.432 38.7013 26.224 38.7013 23.76C38.7013 21.872 39.0053 20.144 39.6133 18.576C40.2533 17.008 41.1493 15.664 42.3013 14.544C43.4853 13.424 44.8613 12.56 46.4293 11.952C48.0293 11.312 49.7893 10.992 51.7093 10.992C53.6293 10.992 55.3733 11.296 56.9413 11.904C58.5413 12.512 59.9173 13.392 61.0693 14.544C62.2533 15.664 63.1493 17.008 63.7573 18.576C64.3973 20.144 64.7173 21.872 64.7173 23.76ZM44.7013 23.712C44.7013 25.792 44.9733 27.584 45.5173 29.088C46.0933 30.592 46.8933 31.744 47.9173 32.544C48.9733 33.344 50.2373 33.744 51.7093 33.744C53.2133 33.744 54.4773 33.344 55.5013 32.544C56.5253 31.744 57.3093 30.592 57.8533 29.088C58.4293 27.584 58.7173 25.792 58.7173 23.712C58.7173 21.632 58.4293 19.856 57.8533 18.384C57.3093 16.88 56.5253 15.744 55.5013 14.976C54.4773 14.176 53.2133 13.776 51.7093 13.776C50.2373 13.776 48.9733 14.176 47.9173 14.976C46.8933 15.744 46.0933 16.88 45.5173 18.384C44.9733 19.856 44.7013 21.632 44.7013 23.712ZM82.2395 33.648C83.5515 33.648 84.6875 33.392 85.6475 32.88C86.6075 32.368 87.4395 31.712 88.1435 30.912C88.8475 30.112 89.4395 29.328 89.9195 28.56L92.0795 30.384C91.4075 31.536 90.5915 32.576 89.6315 33.504C88.6715 34.432 87.5355 35.168 86.2235 35.712C84.9435 36.224 83.4075 36.48 81.6155 36.48C79.0555 36.48 76.7995 35.952 74.8475 34.896C72.8955 33.808 71.3595 32.304 70.2395 30.384C69.1515 28.464 68.6075 26.24 68.6075 23.712C68.6075 21.152 69.1675 18.928 70.2875 17.04C71.4075 15.12 72.9755 13.632 74.9915 12.576C77.0395 11.52 79.4075 10.992 82.0955 10.992C83.6955 10.992 85.1355 11.168 86.4155 11.52C87.6955 11.84 88.7675 12.224 89.6315 12.672C90.5275 13.12 91.1835 13.552 91.5995 13.968V19.872H86.6075V14.16C86.9595 14.224 87.2635 14.336 87.5195 14.496C87.8075 14.656 88.0315 14.864 88.1915 15.12C88.3835 15.376 88.4955 15.664 88.5275 15.984C88.5915 16.272 88.5755 16.592 88.4795 16.944C87.9675 16.016 87.1515 15.264 86.0315 14.688C84.9115 14.08 83.6475 13.776 82.2395 13.776C80.5755 13.776 79.1675 14.192 78.0155 15.024C76.8955 15.824 76.0475 16.976 75.4715 18.48C74.8955 19.984 74.6075 21.728 74.6075 23.712C74.6075 25.216 74.7675 26.592 75.0875 27.84C75.4395 29.056 75.9355 30.096 76.5755 30.96C77.2475 31.824 78.0475 32.496 78.9755 32.976C79.9355 33.424 81.0235 33.648 82.2395 33.648ZM103.771 11.472V28.32C103.771 29.44 103.883 30.352 104.107 31.056C104.363 31.76 104.747 32.288 105.259 32.64C105.803 32.96 106.507 33.12 107.371 33.12C108.331 33.12 109.227 32.912 110.059 32.496C110.891 32.08 111.675 31.472 112.411 30.672C113.179 29.84 113.899 28.8 114.571 27.552L114.763 30.72C113.995 32 113.163 33.072 112.267 33.936C111.371 34.768 110.379 35.408 109.291 35.856C108.235 36.272 107.051 36.48 105.739 36.48C104.171 36.48 102.811 36.192 101.659 35.616C100.507 35.04 99.6109 34.16 98.9709 32.976C98.3309 31.792 98.0109 30.32 98.0109 28.56V15.84C98.0109 15.2 97.7549 14.752 97.2429 14.496C96.7629 14.24 95.9949 14.032 94.9389 13.872L94.4109 13.776V11.472H103.771ZM119.467 11.472V32.064C119.467 32.48 119.611 32.816 119.899 33.072C120.187 33.296 120.587 33.456 121.099 33.552C121.611 33.648 122.203 33.696 122.875 33.696L123.067 33.744V36H114.187V30.864L113.707 30.528V15.84C113.707 15.2 113.435 14.752 112.891 14.496C112.347 14.208 111.547 14 110.491 13.872L109.531 13.776V11.472H119.467ZM125.506 36V33.744H125.554C126.578 33.744 127.41 33.648 128.05 33.456C128.69 33.232 129.01 32.784 129.01 32.112V15.84C129.01 15.392 128.898 15.056 128.674 14.832C128.45 14.608 128.114 14.432 127.666 14.304C127.218 14.144 126.642 14 125.938 13.872L125.506 13.776V11.472H134.29V16.56L134.77 16.896V33.312C134.77 33.408 134.93 33.488 135.25 33.552C135.57 33.616 135.938 33.664 136.354 33.696C136.802 33.728 137.202 33.744 137.554 33.744H137.65V36H125.506ZM152.242 36H140.674V33.744H140.722C141.106 33.744 141.522 33.728 141.97 33.696C142.418 33.664 142.786 33.616 143.074 33.552C143.394 33.488 143.554 33.408 143.554 33.312V19.152C143.554 18.032 143.458 17.12 143.266 16.416C143.106 15.68 142.802 15.152 142.354 14.832C141.938 14.48 141.33 14.304 140.53 14.304C139.666 14.304 138.85 14.512 138.082 14.928C137.346 15.344 136.626 15.968 135.922 16.8C135.25 17.632 134.578 18.672 133.906 19.92L133.714 16.656C134.482 15.44 135.282 14.416 136.114 13.584C136.946 12.72 137.858 12.08 138.85 11.664C139.842 11.216 140.962 10.992 142.21 10.992C143.618 10.992 144.85 11.28 145.906 11.856C146.994 12.4 147.842 13.264 148.45 14.448C149.058 15.6 149.362 17.088 149.362 18.912V33.264C149.362 33.36 149.506 33.456 149.794 33.552C150.114 33.616 150.498 33.664 150.946 33.696C151.394 33.728 151.81 33.744 152.194 33.744H152.242V36ZM167.506 36H155.314V33.744H155.41C155.794 33.744 156.194 33.728 156.61 33.696C157.026 33.664 157.378 33.616 157.666 33.552C157.986 33.488 158.146 33.408 158.146 33.312V19.152C158.146 18.032 158.05 17.12 157.858 16.416C157.698 15.68 157.394 15.152 156.946 14.832C156.53 14.48 155.922 14.304 155.122 14.304C154.258 14.304 153.442 14.528 152.674 14.976C151.906 15.392 151.186 16.016 150.514 16.848C149.842 17.648 149.17 18.656 148.498 19.872L148.306 16.656C149.074 15.44 149.874 14.416 150.706 13.584C151.538 12.72 152.45 12.08 153.442 11.664C154.434 11.216 155.554 10.992 156.802 10.992C158.21 10.992 159.442 11.28 160.498 11.856C161.586 12.4 162.434 13.264 163.042 14.448C163.65 15.6 163.954 17.088 163.954 18.912V32.112C163.954 32.784 164.274 33.232 164.914 33.456C165.554 33.648 166.37 33.744 167.362 33.744H167.506V36ZM176.229 23.904C176.229 25.472 176.405 26.864 176.757 28.08C177.109 29.264 177.621 30.272 178.293 31.104C178.965 31.936 179.765 32.576 180.693 33.024C181.653 33.44 182.725 33.648 183.909 33.648C185.157 33.648 186.229 33.408 187.125 32.928C188.053 32.448 188.837 31.84 189.477 31.104C190.149 30.368 190.709 29.6 191.157 28.8L193.461 30.672C192.853 31.792 192.085 32.8 191.157 33.696C190.229 34.56 189.109 35.248 187.797 35.76C186.517 36.24 185.029 36.48 183.333 36.48C180.837 36.48 178.613 35.968 176.661 34.944C174.709 33.92 173.173 32.464 172.053 30.576C170.933 28.656 170.373 26.4 170.373 23.808C170.373 21.248 170.901 19.008 171.957 17.088C173.045 15.168 174.501 13.68 176.325 12.624C178.149 11.536 180.197 10.992 182.469 10.992C184.293 10.992 185.893 11.28 187.269 11.856C188.677 12.4 189.845 13.248 190.773 14.4C191.733 15.52 192.453 16.928 192.933 18.624C193.445 20.32 193.701 22.304 193.701 24.576H175.029V21.936H189.285L187.989 22.944C187.957 21.344 187.829 19.968 187.605 18.816C187.381 17.632 187.045 16.672 186.597 15.936C186.149 15.2 185.589 14.656 184.917 14.304C184.245 13.952 183.445 13.776 182.517 13.776C181.621 13.776 180.789 14 180.021 14.448C179.253 14.864 178.581 15.504 178.005 16.368C177.429 17.232 176.981 18.288 176.661 19.536C176.373 20.784 176.229 22.24 176.229 23.904ZM196.943 36V33.744H196.991C197.663 33.744 198.255 33.696 198.767 33.6C199.279 33.504 199.679 33.344 199.967 33.12C200.287 32.864 200.447 32.528 200.447 32.112V15.84C200.447 15.392 200.335 15.056 200.111 14.832C199.887 14.608 199.551 14.432 199.103 14.304C198.655 14.144 198.079 14 197.375 13.872L196.943 13.776V11.472H205.727V16.608L206.207 16.944V33.312C206.207 33.408 206.367 33.488 206.687 33.552C207.007 33.616 207.407 33.664 207.887 33.696C208.367 33.728 208.815 33.744 209.231 33.744H209.327V36H196.943ZM225.647 36H213.215V33.744H213.263C213.679 33.744 214.127 33.728 214.607 33.696C215.087 33.664 215.503 33.616 215.855 33.552C216.207 33.488 216.383 33.408 216.383 33.312V19.104C216.383 17.984 216.255 17.072 215.999 16.368C215.743 15.664 215.343 15.152 214.799 14.832C214.287 14.48 213.599 14.304 212.735 14.304C211.743 14.304 210.815 14.528 209.951 14.976C209.087 15.392 208.271 16.016 207.503 16.848C206.767 17.68 206.047 18.72 205.343 19.968L205.199 16.752C205.967 15.504 206.799 14.448 207.695 13.584C208.591 12.72 209.583 12.08 210.671 11.664C211.791 11.216 213.023 10.992 214.367 10.992C215.935 10.992 217.295 11.28 218.447 11.856C219.599 12.432 220.495 13.296 221.135 14.448C221.807 15.6 222.143 17.088 222.143 18.912V32.112C222.143 32.528 222.287 32.864 222.575 33.12C222.863 33.344 223.263 33.504 223.775 33.6C224.287 33.696 224.879 33.744 225.551 33.744H225.647V36ZM227.009 14.16V11.664H227.201C228.097 11.664 228.849 11.6 229.457 11.472C230.097 11.312 230.577 11.056 230.897 10.704C231.249 10.32 231.441 9.808 231.473 9.168L234.785 11.472H243.521V14.16H227.009ZM236.753 27.984C236.753 29.328 236.913 30.4 237.233 31.2C237.553 32 238.017 32.592 238.625 32.976C239.233 33.328 239.953 33.504 240.785 33.504C241.457 33.504 242.081 33.44 242.657 33.312C243.233 33.152 243.681 33.024 244.001 32.928V35.712C243.713 35.84 243.345 35.952 242.897 36.048C242.481 36.176 242.001 36.272 241.457 36.336C240.913 36.432 240.337 36.48 239.729 36.48C238.161 36.48 236.705 36.224 235.361 35.712C234.017 35.2 232.945 34.32 232.145 33.072C231.345 31.824 230.945 30.112 230.945 27.936V12.096L231.425 11.76L231.521 4.848H236.753V27.984ZM262.958 21.216L262.91 23.616C261.47 23.776 260.19 23.984 259.07 24.24C257.95 24.464 256.974 24.752 256.142 25.104C255.31 25.456 254.622 25.856 254.078 26.304C253.566 26.752 253.182 27.28 252.926 27.888C252.67 28.496 252.542 29.152 252.542 29.856C252.542 30.656 252.702 31.344 253.022 31.92C253.342 32.496 253.79 32.944 254.366 33.264C254.942 33.552 255.598 33.696 256.334 33.696C257.358 33.696 258.254 33.456 259.022 32.976C259.79 32.464 260.478 31.776 261.086 30.912C261.726 30.016 262.27 28.992 262.718 27.84L262.91 30.624C262.43 31.84 261.79 32.896 260.99 33.792C260.222 34.656 259.294 35.328 258.206 35.808C257.15 36.256 255.934 36.48 254.558 36.48C253.086 36.48 251.774 36.224 250.622 35.712C249.47 35.2 248.558 34.464 247.886 33.504C247.214 32.512 246.878 31.344 246.878 30C246.878 28.688 247.214 27.552 247.886 26.592C248.59 25.632 249.614 24.8 250.958 24.096C252.302 23.392 253.966 22.816 255.95 22.368C257.966 21.92 260.302 21.536 262.958 21.216ZM262.19 36V31.056H261.71V18.672C261.71 17.456 261.534 16.496 261.182 15.792C260.862 15.056 260.366 14.528 259.694 14.208C259.054 13.888 258.254 13.728 257.294 13.728C255.822 13.728 254.622 14.032 253.694 14.64C252.766 15.248 252.014 15.968 251.438 16.8C251.342 16.416 251.326 16.064 251.39 15.744C251.454 15.392 251.582 15.088 251.774 14.832C251.966 14.576 252.206 14.368 252.494 14.208C252.782 14.016 253.102 13.872 253.454 13.776V18.864H248.462V13.92C248.942 13.568 249.598 13.168 250.43 12.72C251.294 12.24 252.35 11.84 253.598 11.52C254.846 11.168 256.254 10.992 257.822 10.992C259.134 10.992 260.366 11.136 261.518 11.424C262.67 11.68 263.678 12.128 264.542 12.768C265.438 13.408 266.126 14.24 266.606 15.264C267.118 16.256 267.374 17.472 267.374 18.912V32.064C267.374 32.48 267.518 32.816 267.806 33.072C268.094 33.296 268.478 33.456 268.958 33.552C269.47 33.648 270.062 33.696 270.734 33.696L270.83 33.744V36H262.19ZM271.447 14.16V11.664H271.639C272.535 11.664 273.287 11.6 273.895 11.472C274.535 11.312 275.015 11.056 275.335 10.704C275.687 10.32 275.879 9.808 275.911 9.168L279.223 11.472H287.959V14.16H271.447ZM281.191 27.984C281.191 29.328 281.351 30.4 281.671 31.2C281.991 32 282.455 32.592 283.062 32.976C283.671 33.328 284.391 33.504 285.223 33.504C285.895 33.504 286.519 33.44 287.095 33.312C287.671 33.152 288.119 33.024 288.439 32.928V35.712C288.151 35.84 287.783 35.952 287.335 36.048C286.919 36.176 286.439 36.272 285.895 36.336C285.351 36.432 284.775 36.48 284.167 36.48C282.599 36.48 281.143 36.224 279.799 35.712C278.455 35.2 277.383 34.32 276.583 33.072C275.783 31.824 275.383 30.112 275.383 27.936V12.096L275.863 11.76L275.959 4.848H281.191V27.984ZM297.215 6.672C296.191 6.672 295.343 6.384 294.671 5.808C293.999 5.2 293.663 4.4 293.663 3.408C293.663 2.384 293.999 1.584 294.671 1.008C295.343 0.431998 296.191 0.143998 297.215 0.143998C298.271 0.143998 299.119 0.431998 299.759 1.008C300.431 1.584 300.767 2.384 300.767 3.408C300.767 4.4 300.431 5.2 299.759 5.808C299.119 6.384 298.271 6.672 297.215 6.672ZM300.287 11.472V32.112C300.287 32.784 300.607 33.232 301.247 33.456C301.887 33.648 302.703 33.744 303.695 33.744H303.791V36H290.975V33.744H291.023C292.047 33.744 292.879 33.648 293.519 33.456C294.159 33.232 294.479 32.784 294.479 32.112V15.84C294.479 15.2 294.239 14.768 293.759 14.544C293.279 14.288 292.511 14.064 291.455 13.872L290.975 13.776V11.472H300.287ZM332.702 23.76C332.702 26.224 332.158 28.432 331.07 30.384C329.982 32.304 328.462 33.808 326.51 34.896C324.558 35.952 322.286 36.48 319.694 36.48C317.134 36.48 314.862 35.952 312.878 34.896C310.926 33.808 309.406 32.304 308.318 30.384C307.23 28.432 306.686 26.224 306.686 23.76C306.686 21.872 306.99 20.144 307.598 18.576C308.238 17.008 309.134 15.664 310.286 14.544C311.47 13.424 312.846 12.56 314.414 11.952C316.014 11.312 317.774 10.992 319.694 10.992C321.614 10.992 323.358 11.296 324.926 11.904C326.526 12.512 327.902 13.392 329.054 14.544C330.238 15.664 331.134 17.008 331.742 18.576C332.382 20.144 332.702 21.872 332.702 23.76ZM312.686 23.712C312.686 25.792 312.958 27.584 313.502 29.088C314.078 30.592 314.878 31.744 315.902 32.544C316.958 33.344 318.222 33.744 319.694 33.744C321.198 33.744 322.462 33.344 323.486 32.544C324.51 31.744 325.294 30.592 325.838 29.088C326.414 27.584 326.702 25.792 326.702 23.712C326.702 21.632 326.414 19.856 325.838 18.384C325.294 16.88 324.51 15.744 323.486 14.976C322.462 14.176 321.198 13.776 319.694 13.776C318.222 13.776 316.958 14.176 315.902 14.976C314.878 15.744 314.078 16.88 313.502 18.384C312.958 19.856 312.686 21.632 312.686 23.712ZM336.209 36V33.744H336.257C336.929 33.744 337.521 33.696 338.033 33.6C338.545 33.504 338.945 33.344 339.233 33.12C339.553 32.864 339.713 32.528 339.713 32.112V15.84C339.713 15.392 339.601 15.056 339.377 14.832C339.153 14.608 338.817 14.432 338.369 14.304C337.921 14.144 337.345 14 336.641 13.872L336.209 13.776V11.472H344.993V16.608L345.473 16.944V33.312C345.473 33.408 345.633 33.488 345.953 33.552C346.273 33.616 346.673 33.664 347.153 33.696C347.633 33.728 348.081 33.744 348.497 33.744H348.593V36H336.209ZM364.913 36H352.481V33.744H352.529C352.945 33.744 353.393 33.728 353.873 33.696C354.353 33.664 354.769 33.616 355.121 33.552C355.473 33.488 355.649 33.408 355.649 33.312V19.104C355.649 17.984 355.521 17.072 355.265 16.368C355.009 15.664 354.609 15.152 354.065 14.832C353.553 14.48 352.865 14.304 352.001 14.304C351.009 14.304 350.081 14.528 349.217 14.976C348.353 15.392 347.537 16.016 346.769 16.848C346.033 17.68 345.313 18.72 344.609 19.968L344.465 16.752C345.233 15.504 346.065 14.448 346.961 13.584C347.857 12.72 348.849 12.08 349.937 11.664C351.057 11.216 352.289 10.992 353.633 10.992C355.201 10.992 356.561 11.28 357.713 11.856C358.865 12.432 359.761 13.296 360.401 14.448C361.073 15.6 361.409 17.088 361.409 18.912V32.112C361.409 32.528 361.553 32.864 361.841 33.12C362.129 33.344 362.529 33.504 363.041 33.6C363.553 33.696 364.145 33.744 364.817 33.744H364.913V36Z" fill="#111827"/>
</svg>
