<svg width="1118" height="265" viewBox="0 0 1118 265" fill="none" xmlns="http://www.w3.org/2000/svg">
<path d="M293.76 205C292.56 205 291.96 204.4 291.96 203.2V80.8C291.96 79.6 292.56 79 293.76 79H321.48C330.72 79 338.1 82.06 343.62 88.18C349.14 94.18 351.9 102.28 351.9 112.48V171.52C351.9 181.72 349.14 189.88 343.62 196C338.1 202 330.72 205 321.48 205H293.76ZM304.74 193.12C304.74 193.6 304.98 193.84 305.46 193.84L321.3 193.66C326.58 193.66 330.78 191.62 333.9 187.54C337.14 183.46 338.82 177.94 338.94 170.98V113.02C338.94 105.94 337.38 100.36 334.26 96.28C331.14 92.2 326.82 90.16 321.3 90.16H305.46C304.98 90.16 304.74 90.4 304.74 90.88V193.12ZM392.732 206.44C384.092 206.44 377.192 203.92 372.032 198.88C366.992 193.84 364.472 187.18 364.472 178.9V140.2C364.472 132.04 367.052 125.38 372.212 120.22C377.372 115.06 384.212 112.48 392.732 112.48C401.372 112.48 408.272 115.06 413.432 120.22C418.592 125.38 421.172 132.04 421.172 140.2V178.9C421.172 187.18 418.592 193.84 413.432 198.88C408.272 203.92 401.372 206.44 392.732 206.44ZM392.732 195.1C397.292 195.1 401.012 193.54 403.892 190.42C406.892 187.3 408.392 183.16 408.392 178V140.92C408.392 135.76 406.892 131.62 403.892 128.5C401.012 125.26 397.292 123.64 392.732 123.64C388.172 123.64 384.452 125.26 381.572 128.5C378.692 131.62 377.252 135.76 377.252 140.92V178C377.252 183.16 378.692 187.3 381.572 190.42C384.452 193.54 388.172 195.1 392.732 195.1ZM460.059 206.44C451.539 206.44 444.699 203.92 439.539 198.88C434.499 193.84 431.979 187.18 431.979 178.9V140.02C431.979 131.86 434.559 125.26 439.719 120.22C444.879 115.06 451.659 112.48 460.059 112.48C465.699 112.48 470.679 113.62 474.999 115.9C479.319 118.18 482.619 121.24 484.899 125.08C487.299 128.8 488.499 132.94 488.499 137.5V139.3C488.499 140.5 487.899 141.1 486.699 141.1L477.519 141.46C476.319 141.46 475.719 140.86 475.719 139.66V138.4C475.719 134.44 474.219 131.02 471.219 128.14C468.339 125.14 464.619 123.64 460.059 123.64C455.499 123.64 451.779 125.26 448.899 128.5C446.139 131.62 444.759 135.76 444.759 140.92V178C444.759 183.16 446.139 187.36 448.899 190.6C451.779 193.72 455.499 195.28 460.059 195.28C464.619 195.28 468.339 193.84 471.219 190.96C474.219 187.96 475.719 184.48 475.719 180.52V179.26C475.719 178.06 476.319 177.46 477.519 177.46L486.699 177.64C487.899 177.64 488.499 178.24 488.499 179.44V181.42C488.499 188.62 485.859 194.62 480.579 199.42C475.419 204.1 468.579 206.44 460.059 206.44ZM540.761 115.72C540.761 114.52 541.361 113.92 542.561 113.92H551.741C552.941 113.92 553.541 114.52 553.541 115.72V203.2C553.541 204.4 552.941 205 551.741 205H542.561C541.361 205 540.761 204.4 540.761 203.2V197.08C540.761 196.72 540.641 196.54 540.401 196.54C540.281 196.54 540.101 196.66 539.861 196.9C536.141 203.14 530.141 206.26 521.861 206.26C514.661 206.26 508.901 204.1 504.581 199.78C500.381 195.34 498.281 188.68 498.281 179.8V115.72C498.281 114.52 498.881 113.92 500.081 113.92H509.261C510.461 113.92 511.061 114.52 511.061 115.72V176.92C511.061 182.92 512.261 187.48 514.661 190.6C517.181 193.6 520.781 195.1 525.461 195.1C530.261 195.1 533.981 193.36 536.621 189.88C539.381 186.4 540.761 181.66 540.761 175.66V115.72ZM641.17 112.66C648.37 112.66 653.95 115.3 657.91 120.58C661.87 125.86 663.85 133.18 663.85 142.54V203.2C663.85 204.4 663.25 205 662.05 205H653.05C651.85 205 651.25 204.4 651.25 203.2V143.62C651.25 137.5 649.93 132.7 647.29 129.22C644.77 125.62 641.41 123.82 637.21 123.82C632.65 123.82 629.05 125.56 626.41 129.04C623.77 132.52 622.45 137.26 622.45 143.26V203.2C622.45 204.4 621.85 205 620.65 205H611.47C610.27 205 609.67 204.4 609.67 203.2V143.62C609.67 137.5 608.35 132.7 605.71 129.22C603.19 125.62 599.89 123.82 595.81 123.82C591.25 123.82 587.59 125.56 584.83 129.04C582.19 132.52 580.87 137.26 580.87 143.26V203.2C580.87 204.4 580.27 205 579.07 205H570.07C568.87 205 568.27 204.4 568.27 203.2V115.72C568.27 114.52 568.87 113.92 570.07 113.92H579.07C580.27 113.92 580.87 114.52 580.87 115.72V121.3C580.87 121.54 580.93 121.72 581.05 121.84C581.29 121.84 581.53 121.72 581.77 121.48C584.05 118.48 586.75 116.26 589.87 114.82C592.99 113.38 596.29 112.66 599.77 112.66C604.33 112.66 608.29 113.8 611.65 116.08C615.01 118.24 617.59 121.36 619.39 125.44C619.51 125.68 619.69 125.8 619.93 125.8C620.17 125.8 620.35 125.62 620.47 125.26C622.63 120.94 625.57 117.76 629.29 115.72C633.01 113.68 636.97 112.66 641.17 112.66ZM732.149 162.52C732.149 163.72 731.549 164.32 730.349 164.32H689.309C688.829 164.32 688.589 164.56 688.589 165.04V178.18C688.589 183.22 689.969 187.36 692.729 190.6C695.609 193.72 699.329 195.28 703.889 195.28C707.729 195.28 710.969 194.14 713.609 191.86C716.369 189.46 718.169 186.4 719.009 182.68C719.369 181.6 720.029 181.06 720.989 181.06L729.989 181.42C730.469 181.42 730.889 181.6 731.249 181.96C731.609 182.32 731.729 182.8 731.609 183.4C730.649 190.48 727.709 196.12 722.789 200.32C717.989 204.4 711.689 206.44 703.889 206.44C695.369 206.44 688.529 203.92 683.369 198.88C678.329 193.84 675.809 187.18 675.809 178.9V140.02C675.809 131.86 678.329 125.26 683.369 120.22C688.529 115.06 695.369 112.48 703.889 112.48C712.529 112.48 719.369 115.06 724.409 120.22C729.569 125.26 732.149 131.86 732.149 140.02V162.52ZM703.889 123.64C699.329 123.64 695.609 125.26 692.729 128.5C689.969 131.62 688.589 135.76 688.589 140.92V152.98C688.589 153.46 688.829 153.7 689.309 153.7H718.829C719.309 153.7 719.549 153.46 719.549 152.98V140.92C719.549 135.76 718.109 131.62 715.229 128.5C712.349 125.26 708.569 123.64 703.889 123.64ZM776.289 112.66C783.609 112.66 789.249 115.18 793.209 120.22C797.289 125.26 799.329 132.28 799.329 141.28V203.2C799.329 204.4 798.729 205 797.529 205H788.349C787.149 205 786.549 204.4 786.549 203.2V142.36C786.549 136.48 785.229 131.92 782.589 128.68C780.069 125.44 776.529 123.82 771.969 123.82C767.169 123.82 763.389 125.56 760.629 129.04C757.989 132.52 756.669 137.26 756.669 143.26V203.2C756.669 204.4 756.069 205 754.869 205H745.689C744.489 205 743.889 204.4 743.889 203.2V115.72C743.889 114.52 744.489 113.92 745.689 113.92H754.869C756.069 113.92 756.669 114.52 756.669 115.72V121.48C756.669 121.72 756.789 121.9 757.029 122.02C757.269 122.14 757.449 122.02 757.569 121.66C759.729 118.66 762.429 116.44 765.669 115C769.029 113.44 772.569 112.66 776.289 112.66ZM845.018 121.66C845.018 122.86 844.418 123.46 843.218 123.46H829.538C829.058 123.46 828.818 123.7 828.818 124.18V179.26C828.818 184.78 829.778 188.62 831.698 190.78C833.618 192.82 836.558 193.78 840.518 193.66H842.318C843.518 193.66 844.118 194.26 844.118 195.46V203.2C844.118 204.4 843.518 205 842.318 205H837.818C830.738 205 825.338 203.5 821.618 200.5C818.018 197.38 816.218 191.56 816.218 183.04V124.18C816.218 123.7 815.978 123.46 815.498 123.46H808.478C807.278 123.46 806.678 122.86 806.678 121.66V115.72C806.678 114.52 807.278 113.92 808.478 113.92H815.498C815.978 113.92 816.218 113.68 816.218 113.2V93.04C816.218 91.84 816.818 91.24 818.018 91.24H827.018C828.218 91.24 828.818 91.84 828.818 93.04V113.2C828.818 113.68 829.058 113.92 829.538 113.92H843.218C844.418 113.92 845.018 114.52 845.018 115.72V121.66ZM880.407 112.48C888.807 112.48 895.527 115.24 900.567 120.76C905.607 126.16 908.127 133.42 908.127 142.54V203.2C908.127 204.4 907.527 205 906.327 205H897.147C895.947 205 895.347 204.4 895.347 203.2V197.8C895.347 197.56 895.227 197.44 894.987 197.44C894.867 197.32 894.687 197.38 894.447 197.62C890.007 203.5 883.347 206.44 874.467 206.44C867.867 206.44 862.107 204.58 857.187 200.86C852.387 197.02 849.987 190.3 849.987 180.7C849.987 170.5 852.927 163.06 858.807 158.38C864.687 153.58 872.427 151.18 882.027 151.18H894.627C895.107 151.18 895.347 150.94 895.347 150.46V143.44C895.347 137.44 893.967 132.64 891.207 129.04C888.447 125.44 884.727 123.64 880.047 123.64C876.447 123.64 873.327 124.84 870.687 127.24C868.167 129.64 866.667 132.7 866.187 136.42C866.187 137.62 865.587 138.22 864.387 138.22L854.307 138.04C853.707 138.04 853.227 137.86 852.867 137.5C852.627 137.14 852.567 136.72 852.687 136.24C853.287 129.16 856.167 123.46 861.327 119.14C866.487 114.7 872.847 112.48 880.407 112.48ZM877.167 195.28C882.087 195.28 886.347 193.72 889.947 190.6C893.547 187.36 895.347 182.92 895.347 177.28V162.16C895.347 161.68 895.107 161.44 894.627 161.44H881.847C876.087 161.44 871.527 163 868.167 166.12C864.807 169.12 863.127 173.62 863.127 179.62C863.127 184.9 864.387 188.86 866.907 191.5C869.547 194.02 872.967 195.28 877.167 195.28ZM952.962 121.66C952.962 122.86 952.362 123.46 951.162 123.46H937.482C937.002 123.46 936.762 123.7 936.762 124.18V179.26C936.762 184.78 937.722 188.62 939.642 190.78C941.562 192.82 944.502 193.78 948.462 193.66H950.262C951.462 193.66 952.062 194.26 952.062 195.46V203.2C952.062 204.4 951.462 205 950.262 205H945.762C938.682 205 933.282 203.5 929.562 200.5C925.962 197.38 924.162 191.56 924.162 183.04V124.18C924.162 123.7 923.922 123.46 923.442 123.46H916.422C915.222 123.46 914.622 122.86 914.622 121.66V115.72C914.622 114.52 915.222 113.92 916.422 113.92H923.442C923.922 113.92 924.162 113.68 924.162 113.2V93.04C924.162 91.84 924.762 91.24 925.962 91.24H934.962C936.162 91.24 936.762 91.84 936.762 93.04V113.2C936.762 113.68 937.002 113.92 937.482 113.92H951.162C952.362 113.92 952.962 114.52 952.962 115.72V121.66ZM969.45 97.36C966.45 97.36 963.99 96.4 962.07 94.48C960.27 92.56 959.37 90.16 959.37 87.28C959.37 84.28 960.27 81.88 962.07 80.08C963.99 78.16 966.45 77.2 969.45 77.2C972.33 77.2 974.67 78.16 976.47 80.08C978.39 81.88 979.35 84.28 979.35 87.28C979.35 90.16 978.39 92.56 976.47 94.48C974.67 96.4 972.33 97.36 969.45 97.36ZM964.95 205C963.75 205 963.15 204.4 963.15 203.2V115.72C963.15 114.52 963.75 113.92 964.95 113.92H974.13C975.33 113.92 975.93 114.52 975.93 115.72V203.2C975.93 204.4 975.33 205 974.13 205H964.95ZM1018.23 206.44C1009.59 206.44 1002.69 203.92 997.532 198.88C992.492 193.84 989.972 187.18 989.972 178.9V140.2C989.972 132.04 992.552 125.38 997.712 120.22C1002.87 115.06 1009.71 112.48 1018.23 112.48C1026.87 112.48 1033.77 115.06 1038.93 120.22C1044.09 125.38 1046.67 132.04 1046.67 140.2V178.9C1046.67 187.18 1044.09 193.84 1038.93 198.88C1033.77 203.92 1026.87 206.44 1018.23 206.44ZM1018.23 195.1C1022.79 195.1 1026.51 193.54 1029.39 190.42C1032.39 187.3 1033.89 183.16 1033.89 178V140.92C1033.89 135.76 1032.39 131.62 1029.39 128.5C1026.51 125.26 1022.79 123.64 1018.23 123.64C1013.67 123.64 1009.95 125.26 1007.07 128.5C1004.19 131.62 1002.75 135.76 1002.75 140.92V178C1002.75 183.16 1004.19 187.3 1007.07 190.42C1009.95 193.54 1013.67 195.1 1018.23 195.1ZM1091.86 112.66C1099.18 112.66 1104.82 115.18 1108.78 120.22C1112.86 125.26 1114.9 132.28 1114.9 141.28V203.2C1114.9 204.4 1114.3 205 1113.1 205H1103.92C1102.72 205 1102.12 204.4 1102.12 203.2V142.36C1102.12 136.48 1100.8 131.92 1098.16 128.68C1095.64 125.44 1092.1 123.82 1087.54 123.82C1082.74 123.82 1078.96 125.56 1076.2 129.04C1073.56 132.52 1072.24 137.26 1072.24 143.26V203.2C1072.24 204.4 1071.64 205 1070.44 205H1061.26C1060.06 205 1059.46 204.4 1059.46 203.2V115.72C1059.46 114.52 1060.06 113.92 1061.26 113.92H1070.44C1071.64 113.92 1072.24 114.52 1072.24 115.72V121.48C1072.24 121.72 1072.36 121.9 1072.6 122.02C1072.84 122.14 1073.02 122.02 1073.14 121.66C1075.3 118.66 1078 116.44 1081.24 115C1084.6 113.44 1088.14 112.66 1091.86 112.66Z" fill="#31358A"/>
<circle cx="132.5" cy="132.5" r="132.5" fill="#31358A"/>
<path d="M51.1985 87.2206C50.4792 83.1414 53.203 79.2515 57.2822 78.5322L102.583 70.5444L129.138 65.862L159.878 87.3866L164.561 113.941L177.845 189.279C178.564 193.358 175.84 197.248 171.761 197.968L81.1588 213.943C77.0796 214.663 73.1897 211.939 72.4704 207.86L51.1985 87.2206Z" fill="#31358A" stroke="white" stroke-width="5"/>
<path d="M81.0215 57C81.0215 52.8579 84.3793 49.5 88.5215 49.5H134.521H161.486L188.021 76.0355V103V179.5C188.021 183.642 184.664 187 180.521 187H88.5215C84.3794 187 81.0215 183.642 81.0215 179.5V57Z" fill="#31358A" stroke="white" stroke-width="5"/>
<path d="M165.021 65V53.0355L184.486 72.5H172.521C168.379 72.5 165.021 69.1421 165.021 65Z" fill="white" stroke="white" stroke-width="5"/>
<path d="M93.5298 109.144H175.53" stroke="white" stroke-width="5" stroke-linecap="round"/>
<path d="M93.5298 128.144H159.538" stroke="white" stroke-width="5" stroke-linecap="round"/>
<path d="M93.5298 147.144H153.038" stroke="white" stroke-width="5" stroke-linecap="round"/>
<path d="M93.5298 166.144H175.53" stroke="white" stroke-width="5" stroke-linecap="round"/>
<path d="M210.172 93.8256L171.299 144.927L163.294 148.089C162.595 148.365 161.853 147.8 161.932 147.053L162.843 138.495L201.716 87.3934L203.443 85.1231C205.115 82.9253 208.252 82.4989 210.45 84.1708L210.947 84.5486C213.144 86.2205 213.571 89.3575 211.899 91.5553L210.172 93.8256Z" fill="#31358A"/>
<path d="M171.299 144.927L210.172 93.8256M171.299 144.927L167.071 141.711L162.843 138.495M171.299 144.927L163.294 148.089C162.595 148.365 161.853 147.8 161.932 147.053L162.843 138.495M210.172 93.8256L201.716 87.3934M210.172 93.8256L211.899 91.5553C213.571 89.3575 213.144 86.2205 210.947 84.5486L210.45 84.1708C208.252 82.4989 205.115 82.9253 203.443 85.1231L201.716 87.3934M201.716 87.3934L162.843 138.495M170.707 136.931L202.029 95.7564" stroke="white" stroke-width="3"/>
<path d="M210.356 93.9654V93.9654C211.981 95.2011 212.296 97.5195 211.06 99.1438L199.454 114.401" stroke="white" stroke-width="3"/>
<rect x="96.0298" y="64.6438" width="50" height="23" rx="2.5" stroke="white" stroke-width="5"/>
</svg>
